<mxfile host="65bd71144e">
    <diagram id="_5mzsqjyHRiBpsamDOrJ" name="Page-1">
        <mxGraphModel dx="957" dy="459" grid="1" gridSize="10" guides="1" tooltips="1" connect="1" arrows="1" fold="1" page="1" pageScale="1" pageWidth="850" pageHeight="1100" math="0" shadow="0">
            <root>
                <mxCell id="0"/>
                <mxCell id="1" parent="0"/>
                <mxCell id="2" value="Gamify Branch" style="rounded=0;whiteSpace=wrap;html=1;" parent="1" vertex="1">
                    <mxGeometry y="440" width="120" height="60" as="geometry"/>
                </mxCell>
                <mxCell id="3" value="Crypto Mining" style="rounded=0;whiteSpace=wrap;html=1;" parent="1" vertex="1">
                    <mxGeometry x="160" y="440" width="120" height="60" as="geometry"/>
                </mxCell>
                <mxCell id="6" value="&lt;span style=&quot;color: rgb(55, 148, 255); font-family: Menlo, Monaco, &amp;quot;Courier New&amp;quot;, monospace; font-size: 13px; text-align: start; background-color: rgb(79, 79, 79);&quot;&gt;CryptoApplication.java&lt;/span&gt;" style="swimlane;whiteSpace=wrap;html=1;" parent="1" vertex="1">
                    <mxGeometry x="360" y="130" width="230" height="120" as="geometry"/>
                </mxCell>
                <mxCell id="8" value="&lt;meta charset=&quot;utf-8&quot;&gt;&lt;span style=&quot;border-color: rgb(0, 0, 0); font-style: normal; font-variant-ligatures: normal; font-variant-caps: normal; font-weight: 400; letter-spacing: normal; orphans: 2; text-indent: 0px; text-transform: none; widows: 2; word-spacing: 0px; -webkit-text-stroke-width: 0px; text-decoration-thickness: initial; text-decoration-style: initial; text-decoration-color: initial; color: rgb(214, 222, 235); font-family: -apple-system, &amp;quot;system-ui&amp;quot;, sans-serif; font-size: 13px; text-align: left; background-color: rgb(1, 22, 39);&quot;&gt;Starts&lt;/span&gt;&lt;span style=&quot;border-color: rgb(0, 0, 0); font-style: normal; font-variant-ligatures: normal; font-variant-caps: normal; font-weight: 400; letter-spacing: normal; orphans: 2; text-indent: 0px; text-transform: none; widows: 2; word-spacing: 0px; -webkit-text-stroke-width: 0px; text-decoration-thickness: initial; text-decoration-style: initial; text-decoration-color: initial; color: rgb(214, 222, 235); font-family: -apple-system, &amp;quot;system-ui&amp;quot;, sans-serif; font-size: 13px; text-align: left; background-color: rgb(1, 22, 39);&quot;&gt;&amp;nbsp;the Spring&lt;/span&gt;&lt;span style=&quot;border-color: rgb(0, 0, 0); font-style: normal; font-variant-ligatures: normal; font-variant-caps: normal; font-weight: 400; letter-spacing: normal; orphans: 2; text-indent: 0px; text-transform: none; widows: 2; word-spacing: 0px; -webkit-text-stroke-width: 0px; text-decoration-thickness: initial; text-decoration-style: initial; text-decoration-color: initial; color: rgb(214, 222, 235); font-family: -apple-system, &amp;quot;system-ui&amp;quot;, sans-serif; font-size: 13px; text-align: left; background-color: rgb(1, 22, 39);&quot;&gt;&amp;nbsp;Boot application&lt;/span&gt;" style="text;html=1;align=center;verticalAlign=middle;resizable=0;points=[];autosize=1;strokeColor=none;fillColor=none;" parent="6" vertex="1">
                    <mxGeometry y="55" width="230" height="30" as="geometry"/>
                </mxCell>
                <mxCell id="10" value="" style="shape=flexArrow;endArrow=classic;html=1;" parent="1" edge="1">
                    <mxGeometry width="50" height="50" relative="1" as="geometry">
                        <mxPoint x="600" y="190" as="sourcePoint"/>
                        <mxPoint x="840" y="140" as="targetPoint"/>
                    </mxGeometry>
                </mxCell>
                <mxCell id="11" value="&lt;span style=&quot;color: rgb(55, 148, 255); font-family: Menlo, Monaco, &amp;quot;Courier New&amp;quot;, monospace; font-size: 13px; text-align: start; background-color: rgb(79, 79, 79);&quot;&gt;CryptoMiningPriceController.java&lt;/span&gt;" style="swimlane;whiteSpace=wrap;html=1;startSize=23;" parent="1" vertex="1">
                    <mxGeometry x="850" y="80" width="270" height="120" as="geometry"/>
                </mxCell>
                <mxCell id="12" value="&lt;span style=&quot;color: rgb(214, 222, 235); font-family: -apple-system, &amp;quot;system-ui&amp;quot;, sans-serif; font-size: 13px; text-align: left; background-color: rgb(1, 22, 39);&quot;&gt;Handles requests to&lt;/span&gt;&lt;span style=&quot;color: rgb(214, 222, 235); font-family: -apple-system, &amp;quot;system-ui&amp;quot;, sans-serif; font-size: 13px; text-align: left; background-color: rgb(1, 22, 39);&quot;&gt;&amp;nbsp;fetch&lt;/span&gt;&lt;span style=&quot;color: rgb(214, 222, 235); font-family: -apple-system, &amp;quot;system-ui&amp;quot;, sans-serif; font-size: 13px; text-align: left; background-color: rgb(1, 22, 39);&quot;&gt;&amp;nbsp;&lt;br&gt;cryptocurrency&lt;/span&gt;&lt;span style=&quot;color: rgb(214, 222, 235); font-family: -apple-system, &amp;quot;system-ui&amp;quot;, sans-serif; font-size: 13px; text-align: left; background-color: rgb(1, 22, 39);&quot;&gt;&amp;nbsp;&lt;br&gt;prices&lt;/span&gt;&lt;span style=&quot;color: rgb(214, 222, 235); font-family: -apple-system, &amp;quot;system-ui&amp;quot;, sans-serif; font-size: 13px; text-align: left; background-color: rgb(1, 22, 39);&quot;&gt;&amp;nbsp;from&lt;/span&gt;&lt;span style=&quot;color: rgb(214, 222, 235); font-family: -apple-system, &amp;quot;system-ui&amp;quot;, sans-serif; font-size: 13px; text-align: left; background-color: rgb(1, 22, 39);&quot;&gt;&amp;nbsp;the&lt;/span&gt;&lt;span style=&quot;color: rgb(214, 222, 235); font-family: -apple-system, &amp;quot;system-ui&amp;quot;, sans-serif; font-size: 13px; text-align: left; background-color: rgb(1, 22, 39);&quot;&gt;&amp;nbsp;Coin&lt;/span&gt;&lt;span style=&quot;color: rgb(214, 222, 235); font-family: -apple-system, &amp;quot;system-ui&amp;quot;, sans-serif; font-size: 13px; text-align: left; background-color: rgb(1, 22, 39);&quot;&gt;Gecko&lt;/span&gt;&lt;span style=&quot;color: rgb(214, 222, 235); font-family: -apple-system, &amp;quot;system-ui&amp;quot;, sans-serif; font-size: 13px; text-align: left; background-color: rgb(1, 22, 39);&quot;&gt;&amp;nbsp;API&lt;/span&gt;&lt;span style=&quot;color: rgb(214, 222, 235); font-family: -apple-system, &amp;quot;system-ui&amp;quot;, sans-serif; font-size: 13px; text-align: left; background-color: rgb(1, 22, 39);&quot;&gt;&lt;br&gt;&lt;/span&gt;" style="text;html=1;align=center;verticalAlign=middle;resizable=0;points=[];autosize=1;strokeColor=none;fillColor=none;" parent="11" vertex="1">
                    <mxGeometry x="30" y="40" width="210" height="60" as="geometry"/>
                </mxCell>
                <mxCell id="14" value="&lt;span style=&quot;color: rgb(55, 148, 255); font-family: Menlo, Monaco, &amp;quot;Courier New&amp;quot;, monospace; font-size: 13px; text-align: start; background-color: rgb(79, 79, 79);&quot;&gt;GPU.java&lt;/span&gt;" style="swimlane;whiteSpace=wrap;html=1;" parent="1" vertex="1">
                    <mxGeometry x="360" y="310" width="230" height="120" as="geometry"/>
                </mxCell>
                <mxCell id="15" value="&lt;span style=&quot;color: rgb(214, 222, 235); font-family: -apple-system, &amp;quot;system-ui&amp;quot;, sans-serif; font-size: 13px; text-align: left; background-color: rgb(1, 22, 39);&quot;&gt;Represents&lt;/span&gt;&lt;span style=&quot;color: rgb(214, 222, 235); font-family: -apple-system, &amp;quot;system-ui&amp;quot;, sans-serif; font-size: 13px; text-align: left; background-color: rgb(1, 22, 39);&quot;&gt;&amp;nbsp;the GPU entity&lt;/span&gt;&lt;span style=&quot;color: rgb(214, 222, 235); font-family: -apple-system, &amp;quot;system-ui&amp;quot;, sans-serif; font-size: 13px; text-align: left; background-color: rgb(1, 22, 39);&quot;&gt;&amp;nbsp;&lt;br&gt;with properties&lt;/span&gt;&lt;span style=&quot;color: rgb(214, 222, 235); font-family: -apple-system, &amp;quot;system-ui&amp;quot;, sans-serif; font-size: 13px; text-align: left; background-color: rgb(1, 22, 39);&quot;&gt;&amp;nbsp;&lt;br&gt;like&amp;nbsp;&lt;/span&gt;&lt;span style=&quot;font-size: 13px; text-align: left; background-color: var(--vscode-textCodeBlock-background); border-radius: 4px; padding: 1px 4px; word-break: break-word; font-family: Menlo, Monaco, &amp;quot;Courier New&amp;quot;, monospace; cursor: pointer; color: var(--vscode-textLink-foreground);&quot; class=&quot;markdown-inline-code&quot;&gt;hashRate&lt;/span&gt;&lt;span style=&quot;color: rgb(214, 222, 235); font-family: -apple-system, &amp;quot;system-ui&amp;quot;, sans-serif; font-size: 13px; text-align: left; background-color: rgb(1, 22, 39);&quot;&gt;&amp;nbsp;&lt;br&gt;and&lt;/span&gt;&lt;span style=&quot;color: rgb(214, 222, 235); font-family: -apple-system, &amp;quot;system-ui&amp;quot;, sans-serif; font-size: 13px; text-align: left; background-color: rgb(1, 22, 39);&quot;&gt;&amp;nbsp;&lt;/span&gt;&lt;span style=&quot;font-size: 13px; text-align: left; background-color: var(--vscode-textCodeBlock-background); border-radius: 4px; padding: 1px 4px; word-break: break-word; font-family: Menlo, Monaco, &amp;quot;Courier New&amp;quot;, monospace; cursor: pointer; color: var(--vscode-textLink-foreground);&quot; class=&quot;markdown-inline-code&quot;&gt;powerConsumption&lt;/span&gt;" style="text;html=1;align=center;verticalAlign=middle;resizable=0;points=[];autosize=1;strokeColor=none;fillColor=none;" parent="14" vertex="1">
                    <mxGeometry x="20" y="30" width="190" height="80" as="geometry"/>
                </mxCell>
                <mxCell id="17" value="" style="shape=flexArrow;endArrow=classic;html=1;" parent="1" edge="1">
                    <mxGeometry width="50" height="50" relative="1" as="geometry">
                        <mxPoint x="230" y="420" as="sourcePoint"/>
                        <mxPoint x="350" y="200" as="targetPoint"/>
                    </mxGeometry>
                </mxCell>
                <mxCell id="18" value="" style="shape=flexArrow;endArrow=classic;html=1;" parent="1" edge="1">
                    <mxGeometry width="50" height="50" relative="1" as="geometry">
                        <mxPoint x="290" y="430" as="sourcePoint"/>
                        <mxPoint x="350" y="380" as="targetPoint"/>
                    </mxGeometry>
                </mxCell>
                <mxCell id="19" value="" style="shape=flexArrow;endArrow=classic;html=1;" parent="1" edge="1">
                    <mxGeometry width="50" height="50" relative="1" as="geometry">
                        <mxPoint x="600" y="369" as="sourcePoint"/>
                        <mxPoint x="840" y="340" as="targetPoint"/>
                    </mxGeometry>
                </mxCell>
                <mxCell id="20" value="&lt;span style=&quot;color: rgb(55, 148, 255); font-family: Menlo, Monaco, &amp;quot;Courier New&amp;quot;, monospace; font-size: 13px; text-align: start; background-color: rgb(79, 79, 79);&quot;&gt;MiningUser.java&lt;/span&gt;" style="swimlane;whiteSpace=wrap;html=1;startSize=23;" parent="1" vertex="1">
                    <mxGeometry x="850" y="280" width="270" height="120" as="geometry"/>
                </mxCell>
                <mxCell id="21" value="&lt;span style=&quot;color: rgb(214, 222, 235); font-family: -apple-system, &amp;quot;system-ui&amp;quot;, sans-serif; font-size: 13px; text-align: left; background-color: rgb(1, 22, 39);&quot;&gt;Represents&lt;/span&gt;&lt;span style=&quot;color: rgb(214, 222, 235); font-family: -apple-system, &amp;quot;system-ui&amp;quot;, sans-serif; font-size: 13px; text-align: left; background-color: rgb(1, 22, 39);&quot;&gt;&amp;nbsp;a&lt;/span&gt;&lt;span style=&quot;color: rgb(214, 222, 235); font-family: -apple-system, &amp;quot;system-ui&amp;quot;, sans-serif; font-size: 13px; text-align: left; background-color: rgb(1, 22, 39);&quot;&gt;&amp;nbsp;mining&lt;/span&gt;&lt;span style=&quot;color: rgb(214, 222, 235); font-family: -apple-system, &amp;quot;system-ui&amp;quot;, sans-serif; font-size: 13px; text-align: left; background-color: rgb(1, 22, 39);&quot;&gt;&amp;nbsp;user with properties&lt;/span&gt;&lt;span style=&quot;color: rgb(214, 222, 235); font-family: -apple-system, &amp;quot;system-ui&amp;quot;, sans-serif; font-size: 13px; text-align: left; background-color: rgb(1, 22, 39);&quot;&gt;&amp;nbsp;&lt;br&gt;for&lt;/span&gt;&lt;span style=&quot;color: rgb(214, 222, 235); font-family: -apple-system, &amp;quot;system-ui&amp;quot;, sans-serif; font-size: 13px; text-align: left; background-color: rgb(1, 22, 39);&quot;&gt;&amp;nbsp;balances&lt;/span&gt;&lt;span style=&quot;color: rgb(214, 222, 235); font-family: -apple-system, &amp;quot;system-ui&amp;quot;, sans-serif; font-size: 13px; text-align: left; background-color: rgb(1, 22, 39);&quot;&gt;, mining status, &lt;br&gt;and associated GPUs&lt;/span&gt;&lt;span style=&quot;color: rgb(214, 222, 235); font-family: -apple-system, &amp;quot;system-ui&amp;quot;, sans-serif; font-size: 13px; text-align: left; background-color: rgb(1, 22, 39);&quot;&gt;&lt;br&gt;&lt;/span&gt;" style="text;html=1;align=center;verticalAlign=middle;resizable=0;points=[];autosize=1;strokeColor=none;fillColor=none;" parent="20" vertex="1">
                    <mxGeometry y="40" width="270" height="60" as="geometry"/>
                </mxCell>
                <mxCell id="22" value="&lt;span style=&quot;color: rgb(55, 148, 255); font-family: Menlo, Monaco, &amp;quot;Courier New&amp;quot;, monospace; font-size: 13px; text-align: start; background-color: rgb(79, 79, 79);&quot;&gt;MiningUserRepository.java&lt;/span&gt;" style="swimlane;whiteSpace=wrap;html=1;" parent="1" vertex="1">
                    <mxGeometry x="360" y="680" width="230" height="120" as="geometry"/>
                </mxCell>
                <mxCell id="23" value="&lt;span style=&quot;color: rgb(214, 222, 235); font-family: -apple-system, &amp;quot;system-ui&amp;quot;, sans-serif; font-size: 13px; text-align: left; background-color: rgb(1, 22, 39);&quot;&gt;Provides CRUD&lt;/span&gt;&lt;span style=&quot;color: rgb(214, 222, 235); font-family: -apple-system, &amp;quot;system-ui&amp;quot;, sans-serif; font-size: 13px; text-align: left; background-color: rgb(1, 22, 39);&quot;&gt;&amp;nbsp;operations&lt;/span&gt;&lt;span style=&quot;color: rgb(214, 222, 235); font-family: -apple-system, &amp;quot;system-ui&amp;quot;, sans-serif; font-size: 13px; text-align: left; background-color: rgb(1, 22, 39);&quot;&gt;&amp;nbsp;&lt;br&gt;for&lt;/span&gt;&lt;span style=&quot;color: rgb(214, 222, 235); font-family: -apple-system, &amp;quot;system-ui&amp;quot;, sans-serif; font-size: 13px; text-align: left; background-color: rgb(1, 22, 39);&quot;&gt;&amp;nbsp;&lt;/span&gt;&lt;span style=&quot;font-size: 13px; text-align: left; background-color: var(--vscode-textCodeBlock-background); border-radius: 4px; padding: 1px 4px; word-break: break-word; font-family: Menlo, Monaco, &amp;quot;Courier New&amp;quot;, monospace; cursor: pointer; color: var(--vscode-textLink-foreground);&quot; class=&quot;markdown-inline-code&quot;&gt;MiningUser&lt;/span&gt;&lt;span style=&quot;color: rgb(214, 222, 235); font-family: -apple-system, &amp;quot;system-ui&amp;quot;, sans-serif; font-size: 13px; text-align: left; background-color: rgb(1, 22, 39);&quot;&gt;&amp;nbsp;entities&lt;/span&gt;&lt;span style=&quot;color: rgb(214, 222, 235); font-family: -apple-system, &amp;quot;system-ui&amp;quot;, sans-serif; font-size: 13px; text-align: left; background-color: rgb(1, 22, 39);&quot;&gt;.&lt;/span&gt;" style="text;html=1;align=center;verticalAlign=middle;resizable=0;points=[];autosize=1;strokeColor=none;fillColor=none;" parent="22" vertex="1">
                    <mxGeometry x="20" y="45" width="190" height="50" as="geometry"/>
                </mxCell>
                <mxCell id="24" value="&lt;span style=&quot;color: rgb(55, 148, 255); font-family: Menlo, Monaco, &amp;quot;Courier New&amp;quot;, monospace; font-size: 13px; text-align: start; background-color: rgb(79, 79, 79);&quot;&gt;MiningService.java&lt;/span&gt;" style="swimlane;whiteSpace=wrap;html=1;startSize=23;" parent="1" vertex="1">
                    <mxGeometry x="850" y="680" width="270" height="120" as="geometry"/>
                </mxCell>
                <mxCell id="25" value="&lt;span style=&quot;color: rgb(214, 222, 235); font-family: -apple-system, &amp;quot;system-ui&amp;quot;, sans-serif; font-size: 13px; text-align: left; background-color: rgb(1, 22, 39);&quot;&gt;Contains business&lt;/span&gt;&lt;span style=&quot;color: rgb(214, 222, 235); font-family: -apple-system, &amp;quot;system-ui&amp;quot;, sans-serif; font-size: 13px; text-align: left; background-color: rgb(1, 22, 39);&quot;&gt;&amp;nbsp;logic for&lt;/span&gt;&lt;span style=&quot;color: rgb(214, 222, 235); font-family: -apple-system, &amp;quot;system-ui&amp;quot;, sans-serif; font-size: 13px; text-align: left; background-color: rgb(1, 22, 39);&quot;&gt;&amp;nbsp;&lt;br&gt;mining&lt;/span&gt;&lt;span style=&quot;color: rgb(214, 222, 235); font-family: -apple-system, &amp;quot;system-ui&amp;quot;, sans-serif; font-size: 13px; text-align: left; background-color: rgb(1, 22, 39);&quot;&gt;&amp;nbsp;operations&lt;/span&gt;&lt;span style=&quot;color: rgb(214, 222, 235); font-family: -apple-system, &amp;quot;system-ui&amp;quot;, sans-serif; font-size: 13px; text-align: left; background-color: rgb(1, 22, 39);&quot;&gt;, including&lt;/span&gt;&lt;span style=&quot;color: rgb(214, 222, 235); font-family: -apple-system, &amp;quot;system-ui&amp;quot;, sans-serif; font-size: 13px; text-align: left; background-color: rgb(1, 22, 39);&quot;&gt;&amp;nbsp;processing &lt;br&gt;mining&lt;/span&gt;&lt;span style=&quot;color: rgb(214, 222, 235); font-family: -apple-system, &amp;quot;system-ui&amp;quot;, sans-serif; font-size: 13px; text-align: left; background-color: rgb(1, 22, 39);&quot;&gt;&amp;nbsp;and&lt;/span&gt;&lt;span style=&quot;color: rgb(214, 222, 235); font-family: -apple-system, &amp;quot;system-ui&amp;quot;, sans-serif; font-size: 13px; text-align: left; background-color: rgb(1, 22, 39);&quot;&gt;&amp;nbsp;calculating&lt;/span&gt;&lt;span style=&quot;color: rgb(214, 222, 235); font-family: -apple-system, &amp;quot;system-ui&amp;quot;, sans-serif; font-size: 13px; text-align: left; background-color: rgb(1, 22, 39);&quot;&gt;&amp;nbsp;profitability.&lt;/span&gt;&lt;span style=&quot;color: rgb(214, 222, 235); font-family: -apple-system, &amp;quot;system-ui&amp;quot;, sans-serif; font-size: 13px; text-align: left; background-color: rgb(1, 22, 39);&quot;&gt;&lt;br&gt;&lt;/span&gt;" style="text;html=1;align=center;verticalAlign=middle;resizable=0;points=[];autosize=1;strokeColor=none;fillColor=none;" parent="24" vertex="1">
                    <mxGeometry x="5" y="40" width="260" height="60" as="geometry"/>
                </mxCell>
                <mxCell id="26" value="" style="shape=flexArrow;endArrow=classic;html=1;" parent="1" edge="1">
                    <mxGeometry width="50" height="50" relative="1" as="geometry">
                        <mxPoint x="600" y="720" as="sourcePoint"/>
                        <mxPoint x="840" y="740" as="targetPoint"/>
                    </mxGeometry>
                </mxCell>
                <mxCell id="27" value="" style="shape=flexArrow;endArrow=classic;html=1;" parent="1" edge="1">
                    <mxGeometry width="50" height="50" relative="1" as="geometry">
                        <mxPoint x="190" y="510" as="sourcePoint"/>
                        <mxPoint x="350" y="740" as="targetPoint"/>
                    </mxGeometry>
                </mxCell>
                <mxCell id="28" value="&lt;span style=&quot;color: rgb(55, 148, 255); font-family: Menlo, Monaco, &amp;quot;Courier New&amp;quot;, monospace; font-size: 13px; text-align: start; background-color: rgb(79, 79, 79);&quot;&gt;MiningController.java&lt;/span&gt;" style="swimlane;whiteSpace=wrap;html=1;startSize=23;" parent="1" vertex="1">
                    <mxGeometry x="850" y="840" width="270" height="120" as="geometry"/>
                </mxCell>
                <mxCell id="29" value="&lt;span style=&quot;color: rgb(214, 222, 235); font-family: -apple-system, &amp;quot;system-ui&amp;quot;, sans-serif; font-size: 13px; text-align: left; background-color: rgb(1, 22, 39);&quot;&gt;Handles HTTP&lt;/span&gt;&lt;span style=&quot;color: rgb(214, 222, 235); font-family: -apple-system, &amp;quot;system-ui&amp;quot;, sans-serif; font-size: 13px; text-align: left; background-color: rgb(1, 22, 39);&quot;&gt;&amp;nbsp;requests related&lt;/span&gt;&lt;span style=&quot;color: rgb(214, 222, 235); font-family: -apple-system, &amp;quot;system-ui&amp;quot;, sans-serif; font-size: 13px; text-align: left; background-color: rgb(1, 22, 39);&quot;&gt;&amp;nbsp;to &lt;br&gt;mining&lt;/span&gt;&lt;span style=&quot;color: rgb(214, 222, 235); font-family: -apple-system, &amp;quot;system-ui&amp;quot;, sans-serif; font-size: 13px; text-align: left; background-color: rgb(1, 22, 39);&quot;&gt;&amp;nbsp;operations, such&lt;/span&gt;&lt;span style=&quot;color: rgb(214, 222, 235); font-family: -apple-system, &amp;quot;system-ui&amp;quot;, sans-serif; font-size: 13px; text-align: left; background-color: rgb(1, 22, 39);&quot;&gt;&amp;nbsp;as&lt;/span&gt;&lt;span style=&quot;color: rgb(214, 222, 235); font-family: -apple-system, &amp;quot;system-ui&amp;quot;, sans-serif; font-size: 13px; text-align: left; background-color: rgb(1, 22, 39);&quot;&gt;&amp;nbsp;&lt;br&gt;getting stats&lt;/span&gt;&lt;span style=&quot;color: rgb(214, 222, 235); font-family: -apple-system, &amp;quot;system-ui&amp;quot;, sans-serif; font-size: 13px; text-align: left; background-color: rgb(1, 22, 39);&quot;&gt;&amp;nbsp;and&lt;/span&gt;&lt;span style=&quot;color: rgb(214, 222, 235); font-family: -apple-system, &amp;quot;system-ui&amp;quot;, sans-serif; font-size: 13px; text-align: left; background-color: rgb(1, 22, 39);&quot;&gt;&amp;nbsp;buying GPUs&lt;/span&gt;&lt;span style=&quot;color: rgb(214, 222, 235); font-family: -apple-system, &amp;quot;system-ui&amp;quot;, sans-serif; font-size: 13px; text-align: left; background-color: rgb(1, 22, 39);&quot;&gt;&lt;br&gt;&lt;/span&gt;" style="text;html=1;align=center;verticalAlign=middle;resizable=0;points=[];autosize=1;strokeColor=none;fillColor=none;" parent="28" vertex="1">
                    <mxGeometry x="20" y="40" width="230" height="60" as="geometry"/>
                </mxCell>
                <mxCell id="30" value="" style="shape=flexArrow;endArrow=classic;html=1;" parent="1" edge="1">
                    <mxGeometry width="50" height="50" relative="1" as="geometry">
                        <mxPoint x="600" y="770" as="sourcePoint"/>
                        <mxPoint x="840" y="890" as="targetPoint"/>
                    </mxGeometry>
                </mxCell>
                <mxCell id="33" value="&lt;span style=&quot;color: rgb(55, 148, 255); font-family: Menlo, Monaco, &amp;quot;Courier New&amp;quot;, monospace; font-size: 13px; text-align: start; background-color: rgb(79, 79, 79);&quot;&gt;DataInitializer.java&lt;/span&gt;" style="swimlane;whiteSpace=wrap;html=1;" parent="1" vertex="1">
                    <mxGeometry x="360" y="500" width="230" height="120" as="geometry"/>
                </mxCell>
                <mxCell id="34" value="&lt;span style=&quot;color: rgb(214, 222, 235); font-family: -apple-system, &amp;quot;system-ui&amp;quot;, sans-serif; font-size: 13px; text-align: left; background-color: rgb(1, 22, 39);&quot;&gt;Initializes&lt;/span&gt;&lt;span style=&quot;color: rgb(214, 222, 235); font-family: -apple-system, &amp;quot;system-ui&amp;quot;, sans-serif; font-size: 13px; text-align: left; background-color: rgb(1, 22, 39);&quot;&gt;&amp;nbsp;the&lt;/span&gt;&lt;span style=&quot;color: rgb(214, 222, 235); font-family: -apple-system, &amp;quot;system-ui&amp;quot;, sans-serif; font-size: 13px; text-align: left; background-color: rgb(1, 22, 39);&quot;&gt;&amp;nbsp;database with&lt;/span&gt;&lt;span style=&quot;color: rgb(214, 222, 235); font-family: -apple-system, &amp;quot;system-ui&amp;quot;, sans-serif; font-size: 13px; text-align: left; background-color: rgb(1, 22, 39);&quot;&gt;&amp;nbsp;&lt;br&gt;default GPU&lt;/span&gt;&lt;span style=&quot;color: rgb(214, 222, 235); font-family: -apple-system, &amp;quot;system-ui&amp;quot;, sans-serif; font-size: 13px; text-align: left; background-color: rgb(1, 22, 39);&quot;&gt;&amp;nbsp;data&lt;/span&gt;&lt;span style=&quot;color: rgb(214, 222, 235); font-family: -apple-system, &amp;quot;system-ui&amp;quot;, sans-serif; font-size: 13px; text-align: left; background-color: rgb(1, 22, 39);&quot;&gt;&amp;nbsp;&lt;br&gt;on application startup&lt;/span&gt;" style="text;html=1;align=center;verticalAlign=middle;resizable=0;points=[];autosize=1;strokeColor=none;fillColor=none;" parent="33" vertex="1">
                    <mxGeometry x="20" y="40" width="190" height="60" as="geometry"/>
                </mxCell>
                <mxCell id="35" value="&lt;span style=&quot;color: rgb(55, 148, 255); font-family: Menlo, Monaco, &amp;quot;Courier New&amp;quot;, monospace; font-size: 13px; text-align: start; background-color: rgb(79, 79, 79);&quot;&gt;GPURepository.java&lt;/span&gt;" style="swimlane;whiteSpace=wrap;html=1;" parent="1" vertex="1">
                    <mxGeometry x="850" y="460" width="230" height="120" as="geometry"/>
                </mxCell>
                <mxCell id="36" value="&lt;span style=&quot;color: rgb(214, 222, 235); font-family: -apple-system, &amp;quot;system-ui&amp;quot;, sans-serif; font-size: 13px; text-align: left; background-color: rgb(1, 22, 39);&quot;&gt;Provides CRUD &lt;br&gt;operations&lt;/span&gt;&lt;span style=&quot;color: rgb(214, 222, 235); font-family: -apple-system, &amp;quot;system-ui&amp;quot;, sans-serif; font-size: 13px; text-align: left; background-color: rgb(1, 22, 39);&quot;&gt;&amp;nbsp;for&amp;nbsp;&lt;/span&gt;&lt;span style=&quot;font-size: 13px; text-align: left; background-color: var(--vscode-textCodeBlock-background); border-radius: 4px; padding: 1px 4px; word-break: break-word; font-family: Menlo, Monaco, &amp;quot;Courier New&amp;quot;, monospace; cursor: pointer; color: var(--vscode-textLink-foreground);&quot; class=&quot;markdown-inline-code&quot;&gt;GPU&lt;/span&gt;&lt;span style=&quot;color: rgb(214, 222, 235); font-family: -apple-system, &amp;quot;system-ui&amp;quot;, sans-serif; font-size: 13px; text-align: left; background-color: rgb(1, 22, 39);&quot;&gt;&amp;nbsp;entities&lt;/span&gt;" style="text;html=1;align=center;verticalAlign=middle;resizable=0;points=[];autosize=1;strokeColor=none;fillColor=none;" parent="35" vertex="1">
                    <mxGeometry x="20" y="45" width="190" height="50" as="geometry"/>
                </mxCell>
                <mxCell id="38" value="" style="shape=flexArrow;endArrow=classic;html=1;" parent="1" edge="1">
                    <mxGeometry width="50" height="50" relative="1" as="geometry">
                        <mxPoint x="600" y="390" as="sourcePoint"/>
                        <mxPoint x="840" y="490" as="targetPoint"/>
                    </mxGeometry>
                </mxCell>
                <mxCell id="39" value="" style="shape=flexArrow;endArrow=classic;html=1;" parent="1" edge="1">
                    <mxGeometry width="50" height="50" relative="1" as="geometry">
                        <mxPoint x="280" y="510" as="sourcePoint"/>
                        <mxPoint x="350" y="550" as="targetPoint"/>
                    </mxGeometry>
                </mxCell>
                <mxCell id="40" value="" style="shape=flexArrow;endArrow=classic;html=1;" parent="1" edge="1">
                    <mxGeometry width="50" height="50" relative="1" as="geometry">
                        <mxPoint x="600" y="560" as="sourcePoint"/>
                        <mxPoint x="840" y="540" as="targetPoint"/>
                    </mxGeometry>
                </mxCell>
                <mxCell id="41" value="" style="shape=flexArrow;endArrow=classic;html=1;entryX=0;entryY=0.5;entryDx=0;entryDy=0;exitX=1;exitY=0.5;exitDx=0;exitDy=0;" parent="1" source="2" target="3" edge="1">
                    <mxGeometry width="50" height="50" relative="1" as="geometry">
                        <mxPoint x="120" y="369.33" as="sourcePoint"/>
                        <mxPoint x="150" y="369" as="targetPoint"/>
                    </mxGeometry>
                </mxCell>
            </root>
        </mxGraphModel>
    </diagram>
</mxfile>